<svg height="512" viewBox="0 0 64 64" width="512" xmlns="http://www.w3.org/2000/svg"><g id="file-graph-website-report-Digital_Marketing" data-name="file-graph-website-report-Digital Marketing"><path d="m47 3v54h-44v-43h11v-11z" fill="#64c1f7"/><path d="m25 26h-7v-7a7 7 0 0 1 7 7z" fill="#ec455a"/><path d="m15 29h7a7 7 0 1 1 -7-7z" fill="#f6cc4f"/><path d="m14 3v11h-11z" fill="#3e8bda"/><path d="m26 31h34v6h-34z" fill="#6452e2"/><path d="m26 37h34v24h-34z" fill="#a094f7"/><path d="m34 49h4v7h-4z" fill="#f6cc4f"/><path d="m41 46h4v10h-4z" fill="#f6cc4f"/><path d="m48 42h4v14h-4z" fill="#f6cc4f"/><path d="m33 11v6l-4-1v-4z" fill="#ec455a"/><path d="m33 10h8v8h-8z" fill="#e8e5fb"/><path d="m40 18-1 9h-4v-9z" fill="#c7bec5"/><path d="m58.41 12.59a1.955 1.955 0 0 1 .59 1.41 2.006 2.006 0 0 1 -2 2h-2v-4h2a1.955 1.955 0 0 1 1.41.59z" fill="#ec455a"/><path d="m55 5v18l-14-5v-8z" fill="#f6cc4f"/><g fill="#1a6fb0"><path d="m7 40h15v2h-15z"/><path d="m7 44h15v2h-15z"/><path d="m7 48h2v2h-2z"/><path d="m11 48h11v2h-11z"/></g><path d="m29 33h2v2h-2z" fill="#ec455a"/><path d="m33 33h2v2h-2z" fill="#f3ac3c"/><path d="m37 33h2v2h-2z" fill="#5bcbfa"/><path d="m31 55h24v2h-24z" fill="#f3ac3c"/></g></svg>