<?xml version="1.0" standalone="no"?><svg xmlns="http://www.w3.org/2000/svg" viewBox="0 0 1440 320"><path fill="#ff4081" fill-opacity="1" d="M0,32L34.3,42.7C68.6,53,137,75,206,96C274.3,117,343,139,411,122.7C480,107,549,53,617,37.3C685.7,21,754,43,823,53.3C891.4,64,960,64,1029,85.3C1097.1,107,1166,149,1234,154.7C1302.9,160,1371,128,1406,112L1440,96L1440,0L1405.7,0C1371.4,0,1303,0,1234,0C1165.7,0,1097,0,1029,0C960,0,891,0,823,0C754.3,0,686,0,617,0C548.6,0,480,0,411,0C342.9,0,274,0,206,0C137.1,0,69,0,34,0L0,0Z"></path></svg>